solid 
 facet normal  4.682929e-01  7.492686e-01 -4.682929e-01
   outer loop
     vertex  3.000000e-01  0.000000e+00  2.500000e-01
     vertex  1.750000e-01  0.000000e+00  1.250000e-01
     vertex -4.250000e-01  3.750000e-01  1.250000e-01
   endloop
 endfacet
 facet normal  4.682929e-01  7.492686e-01 -4.682929e-01
   outer loop
     vertex  3.000000e-01  0.000000e+00  2.500000e-01
     vertex -4.250000e-01  3.750000e-01  1.250000e-01
     vertex -5.000000e-01  5.000000e-01  2.500000e-01
   endloop
 endfacet
 facet normal  4.682929e-01  7.492686e-01 -4.682929e-01
   outer loop
     vertex  1.750000e-01  0.000000e+00  1.250000e-01
     vertex -3.500000e-01  2.500000e-01  0.000000e+00
     vertex -4.250000e-01  3.750000e-01  1.250000e-01
   endloop
 endfacet
 facet normal  4.682929e-01  7.492686e-01 -4.682929e-01
   outer loop
     vertex  1.750000e-01  0.000000e+00  1.250000e-01
     vertex  5.000000e-02  0.000000e+00  0.000000e+00
     vertex -3.500000e-01  2.500000e-01  0.000000e+00
   endloop
 endfacet
 facet normal  4.682929e-01  7.492686e-01 -4.682929e-01
   outer loop
     vertex  5.000000e-02  0.000000e+00  0.000000e+00
     vertex -2.000000e-01  0.000000e+00 -2.500000e-01
     vertex -3.500000e-01  2.500000e-01  0.000000e+00
   endloop
 endfacet
 facet normal  4.682929e-01 -7.492686e-01 -4.682929e-01
   outer loop
     vertex  3.000000e-01  0.000000e+00  2.500000e-01
     vertex -4.250000e-01 -3.750000e-01  1.250000e-01
     vertex  1.750000e-01  0.000000e+00  1.250000e-01
   endloop
 endfacet
 facet normal  4.682929e-01 -7.492686e-01 -4.682929e-01
   outer loop
     vertex  3.000000e-01  0.000000e+00  2.500000e-01
     vertex -5.000000e-01 -5.000000e-01  2.500000e-01
     vertex -4.250000e-01 -3.750000e-01  1.250000e-01
   endloop
 endfacet
 facet normal  4.682929e-01 -7.492686e-01 -4.682929e-01
   outer loop
     vertex  1.750000e-01  0.000000e+00  1.250000e-01
     vertex -4.250000e-01 -3.750000e-01  1.250000e-01
     vertex -3.500000e-01 -2.500000e-01  0.000000e+00
   endloop
 endfacet
 facet normal  4.682929e-01 -7.492686e-01 -4.682929e-01
   outer loop
     vertex  1.750000e-01  0.000000e+00  1.250000e-01
     vertex -3.500000e-01 -2.500000e-01  0.000000e+00
     vertex  5.000000e-02  0.000000e+00  0.000000e+00
   endloop
 endfacet
 facet normal  4.682929e-01 -7.492686e-01 -4.682929e-01
   outer loop
     vertex  5.000000e-02  0.000000e+00  0.000000e+00
     vertex -3.500000e-01 -2.500000e-01  0.000000e+00
     vertex -2.000000e-01  0.000000e+00 -2.500000e-01
   endloop
 endfacet
 facet normal -8.574929e-01  0.000000e+00 -5.144958e-01
   outer loop
     vertex -5.000000e-01 -5.000000e-01  2.500000e-01
     vertex -5.000000e-01  5.000000e-01  2.500000e-01
     vertex -4.250000e-01  3.750000e-01  1.250000e-01
   endloop
 endfacet
 facet normal -8.574929e-01 -3.173361e-17 -5.144958e-01
   outer loop
     vertex -5.000000e-01 -5.000000e-01  2.500000e-01
     vertex -4.250000e-01  3.750000e-01  1.250000e-01
     vertex -4.250000e-01 -3.750000e-01  1.250000e-01
   endloop
 endfacet
 facet normal -8.574929e-01 -3.808034e-17 -5.144958e-01
   outer loop
     vertex -4.250000e-01 -3.750000e-01  1.250000e-01
     vertex -4.250000e-01  3.750000e-01  1.250000e-01
     vertex -3.500000e-01  2.500000e-01  0.000000e+00
   endloop
 endfacet
 facet normal -8.574929e-01  0.000000e+00 -5.144958e-01
   outer loop
     vertex -4.250000e-01 -3.750000e-01  1.250000e-01
     vertex -3.500000e-01  2.500000e-01  0.000000e+00
     vertex -3.500000e-01 -2.500000e-01  0.000000e+00
   endloop
 endfacet
 facet normal -8.574929e-01  0.000000e+00 -5.144958e-01
   outer loop
     vertex -3.500000e-01 -2.500000e-01  0.000000e+00
     vertex -3.500000e-01  2.500000e-01  0.000000e+00
     vertex -2.000000e-01  0.000000e+00 -2.500000e-01
   endloop
 endfacet
 facet normal -0.000000e+00  0.000000e+00  1.000000e+00
   outer loop
     vertex -3.500000e-01 -2.500000e-01  2.500000e-01
     vertex -5.000000e-01 -5.000000e-01  2.500000e-01
     vertex  3.000000e-01  0.000000e+00  2.500000e-01
   endloop
 endfacet
 facet normal  0.000000e+00  0.000000e+00  1.000000e+00
   outer loop
     vertex -3.500000e-01 -2.500000e-01  2.500000e-01
     vertex  3.000000e-01  0.000000e+00  2.500000e-01
     vertex  5.000000e-02  0.000000e+00  2.500000e-01
   endloop
 endfacet
 facet normal  0.000000e+00  0.000000e+00  1.000000e+00
   outer loop
     vertex -3.500000e-01  2.500000e-01  2.500000e-01
     vertex  5.000000e-02  0.000000e+00  2.500000e-01
     vertex  3.000000e-01  0.000000e+00  2.500000e-01
   endloop
 endfacet
 facet normal  0.000000e+00  0.000000e+00  1.000000e+00
   outer loop
     vertex -5.000000e-01  5.000000e-01  2.500000e-01
     vertex -3.500000e-01 -2.500000e-01  2.500000e-01
     vertex -3.500000e-01  2.500000e-01  2.500000e-01
   endloop
 endfacet
 facet normal  0.000000e+00  0.000000e+00  1.000000e+00
   outer loop
     vertex -5.000000e-01  5.000000e-01  2.500000e-01
     vertex -3.500000e-01  2.500000e-01  2.500000e-01
     vertex  3.000000e-01  0.000000e+00  2.500000e-01
   endloop
 endfacet
 facet normal  0.000000e+00  0.000000e+00  1.000000e+00
   outer loop
     vertex -5.000000e-01  5.000000e-01  2.500000e-01
     vertex -5.000000e-01 -5.000000e-01  2.500000e-01
     vertex -3.500000e-01 -2.500000e-01  2.500000e-01
   endloop
 endfacet
 facet normal  0.000000e+00  0.000000e+00  1.000000e+00
   outer loop
     vertex -3.500000e-01  2.500000e-01  2.500000e-01
     vertex -3.500000e-01 -2.500000e-01  2.500000e-01
     vertex  5.000000e-02  0.000000e+00  2.500000e-01
   endloop
 endfacet
 facet normal  4.682929e-01  7.492686e-01  4.682929e-01
   outer loop
     vertex  3.000000e-01  0.000000e+00  0.000000e+00
     vertex -4.250000e-01  3.750000e-01  1.250000e-01
     vertex  1.750000e-01  0.000000e+00  1.250000e-01
   endloop
 endfacet
 facet normal  4.682929e-01  7.492686e-01  4.682929e-01
   outer loop
     vertex  3.000000e-01  0.000000e+00  0.000000e+00
     vertex -5.000000e-01  5.000000e-01  0.000000e+00
     vertex -4.250000e-01  3.750000e-01  1.250000e-01
   endloop
 endfacet
 facet normal  4.682929e-01  7.492686e-01  4.682929e-01
   outer loop
     vertex  1.750000e-01  0.000000e+00  1.250000e-01
     vertex -4.250000e-01  3.750000e-01  1.250000e-01
     vertex -3.500000e-01  2.500000e-01  2.500000e-01
   endloop
 endfacet
 facet normal  4.682929e-01  7.492686e-01  4.682929e-01
   outer loop
     vertex  1.750000e-01  0.000000e+00  1.250000e-01
     vertex -3.500000e-01  2.500000e-01  2.500000e-01
     vertex  5.000000e-02  0.000000e+00  2.500000e-01
   endloop
 endfacet
 facet normal  4.682929e-01  7.492686e-01  4.682929e-01
   outer loop
     vertex  5.000000e-02  0.000000e+00  2.500000e-01
     vertex -3.500000e-01  2.500000e-01  2.500000e-01
     vertex -2.000000e-01  0.000000e+00  5.000000e-01
   endloop
 endfacet
 facet normal  4.682929e-01 -7.492686e-01  4.682929e-01
   outer loop
     vertex  3.000000e-01  0.000000e+00  0.000000e+00
     vertex  1.750000e-01  0.000000e+00  1.250000e-01
     vertex -4.250000e-01 -3.750000e-01  1.250000e-01
   endloop
 endfacet
 facet normal  4.682929e-01 -7.492686e-01  4.682929e-01
   outer loop
     vertex  3.000000e-01  0.000000e+00  0.000000e+00
     vertex -4.250000e-01 -3.750000e-01  1.250000e-01
     vertex -5.000000e-01 -5.000000e-01  0.000000e+00
   endloop
 endfacet
 facet normal  4.682929e-01 -7.492686e-01  4.682929e-01
   outer loop
     vertex  1.750000e-01  0.000000e+00  1.250000e-01
     vertex -3.500000e-01 -2.500000e-01  2.500000e-01
     vertex -4.250000e-01 -3.750000e-01  1.250000e-01
   endloop
 endfacet
 facet normal  4.682929e-01 -7.492686e-01  4.682929e-01
   outer loop
     vertex  1.750000e-01  0.000000e+00  1.250000e-01
     vertex  5.000000e-02  0.000000e+00  2.500000e-01
     vertex -3.500000e-01 -2.500000e-01  2.500000e-01
   endloop
 endfacet
 facet normal  4.682929e-01 -7.492686e-01  4.682929e-01
   outer loop
     vertex  5.000000e-02  0.000000e+00  2.500000e-01
     vertex -2.000000e-01  0.000000e+00  5.000000e-01
     vertex -3.500000e-01 -2.500000e-01  2.500000e-01
   endloop
 endfacet
 facet normal -8.574929e-01  0.000000e+00  5.144958e-01
   outer loop
     vertex -5.000000e-01 -5.000000e-01  0.000000e+00
     vertex -4.250000e-01  3.750000e-01  1.250000e-01
     vertex -5.000000e-01  5.000000e-01  0.000000e+00
   endloop
 endfacet
 facet normal -8.574929e-01  3.173361e-17  5.144958e-01
   outer loop
     vertex -5.000000e-01 -5.000000e-01  0.000000e+00
     vertex -4.250000e-01 -3.750000e-01  1.250000e-01
     vertex -4.250000e-01  3.750000e-01  1.250000e-01
   endloop
 endfacet
 facet normal -8.574929e-01  3.808034e-17  5.144958e-01
   outer loop
     vertex -4.250000e-01 -3.750000e-01  1.250000e-01
     vertex -3.500000e-01  2.500000e-01  2.500000e-01
     vertex -4.250000e-01  3.750000e-01  1.250000e-01
   endloop
 endfacet
 facet normal -8.574929e-01  0.000000e+00  5.144958e-01
   outer loop
     vertex -4.250000e-01 -3.750000e-01  1.250000e-01
     vertex -3.500000e-01 -2.500000e-01  2.500000e-01
     vertex -3.500000e-01  2.500000e-01  2.500000e-01
   endloop
 endfacet
 facet normal -8.574929e-01  0.000000e+00  5.144958e-01
   outer loop
     vertex -3.500000e-01 -2.500000e-01  2.500000e-01
     vertex -2.000000e-01  0.000000e+00  5.000000e-01
     vertex -3.500000e-01  2.500000e-01  2.500000e-01
   endloop
 endfacet
 facet normal  0.000000e+00 -0.000000e+00 -1.000000e+00
   outer loop
     vertex -3.500000e-01 -2.500000e-01  0.000000e+00
     vertex  3.000000e-01  0.000000e+00  0.000000e+00
     vertex -5.000000e-01 -5.000000e-01  0.000000e+00
   endloop
 endfacet
 facet normal  0.000000e+00  0.000000e+00 -1.000000e+00
   outer loop
     vertex -3.500000e-01 -2.500000e-01  0.000000e+00
     vertex  5.000000e-02  0.000000e+00  0.000000e+00
     vertex  3.000000e-01  0.000000e+00  0.000000e+00
   endloop
 endfacet
 facet normal  0.000000e+00  0.000000e+00 -1.000000e+00
   outer loop
     vertex -3.500000e-01  2.500000e-01  0.000000e+00
     vertex  3.000000e-01  0.000000e+00  0.000000e+00
     vertex  5.000000e-02  0.000000e+00  0.000000e+00
   endloop
 endfacet
 facet normal  0.000000e+00  0.000000e+00 -1.000000e+00
   outer loop
     vertex -5.000000e-01  5.000000e-01  0.000000e+00
     vertex -3.500000e-01  2.500000e-01  0.000000e+00
     vertex -3.500000e-01 -2.500000e-01  0.000000e+00
   endloop
 endfacet
 facet normal  0.000000e+00  0.000000e+00 -1.000000e+00
   outer loop
     vertex -5.000000e-01  5.000000e-01  0.000000e+00
     vertex  3.000000e-01  0.000000e+00  0.000000e+00
     vertex -3.500000e-01  2.500000e-01  0.000000e+00
   endloop
 endfacet
 facet normal  0.000000e+00  0.000000e+00 -1.000000e+00
   outer loop
     vertex -5.000000e-01  5.000000e-01  0.000000e+00
     vertex -3.500000e-01 -2.500000e-01  0.000000e+00
     vertex -5.000000e-01 -5.000000e-01  0.000000e+00
   endloop
 endfacet
 facet normal  0.000000e+00  0.000000e+00 -1.000000e+00
   outer loop
     vertex -3.500000e-01  2.500000e-01  0.000000e+00
     vertex  5.000000e-02  0.000000e+00  0.000000e+00
     vertex -3.500000e-01 -2.500000e-01  0.000000e+00
   endloop
 endfacet
endsolid
